<?xml version="1.0" encoding="UTF-8" standalone="no"?>
<!DOCTYPE svg PUBLIC "-//W3C//DTD SVG 1.1//EN"
 "http://www.w3.org/Graphics/SVG/1.1/DTD/svg11.dtd">
<!-- Generated by graphviz version 2.40.1 (0)
 -->
<!-- Title: G Pages: 1 -->
<svg width="350pt" height="513pt"
 viewBox="0.00 0.00 349.50 513.49" xmlns="http://www.w3.org/2000/svg" xmlns:xlink="http://www.w3.org/1999/xlink">
<g id="graph0" class="graph" transform="scale(1 1) rotate(0) translate(4 509.4856)">
<title>G</title>
<polygon fill="#ffffff" stroke="transparent" points="-4,4 -4,-509.4856 345.5,-509.4856 345.5,4 -4,4"/>
<!-- noise -->
<g id="node1" class="node">
<title>noise</title>
<polygon fill="none" stroke="#000000" points="210.5,-505.4856 156.5,-505.4856 156.5,-469.4856 210.5,-469.4856 210.5,-505.4856"/>
<text text-anchor="middle" x="183.5" y="-483.7856" font-family="Times,serif" font-size="14.00" fill="#000000">noise</text>
</g>
<!-- generator -->
<g id="node2" class="node">
<title>generator</title>
<polygon fill="none" stroke="#000000" points="227,-432.4856 140,-432.4856 140,-396.4856 227,-396.4856 227,-432.4856"/>
<text text-anchor="middle" x="183.5" y="-410.7856" font-family="Times,serif" font-size="14.00" fill="#000000">generator</text>
</g>
<!-- noise&#45;&gt;generator -->
<g id="edge1" class="edge">
<title>noise&#45;&gt;generator</title>
<path fill="none" stroke="#000000" d="M183.5,-469.4406C183.5,-461.3684 183.5,-451.662 183.5,-442.6673"/>
<polygon fill="#000000" stroke="#000000" points="187.0001,-442.5759 183.5,-432.5759 180.0001,-442.576 187.0001,-442.5759"/>
</g>
<!-- generated sample -->
<g id="node3" class="node">
<title>generated sample</title>
<polygon fill="none" stroke="#000000" points="145,-359.4856 0,-359.4856 0,-323.4856 145,-323.4856 145,-359.4856"/>
<text text-anchor="middle" x="72.5" y="-337.7856" font-family="Times,serif" font-size="14.00" fill="#000000">generated sample</text>
</g>
<!-- generator&#45;&gt;generated sample -->
<g id="edge2" class="edge">
<title>generator&#45;&gt;generated sample</title>
<path fill="none" stroke="#000000" d="M156.0618,-396.4406C141.7864,-387.0523 124.1496,-375.4534 108.7637,-365.3347"/>
<polygon fill="#000000" stroke="#000000" points="110.2855,-362.1465 100.0073,-359.5759 106.4392,-367.9951 110.2855,-362.1465"/>
</g>
<!-- choice -->
<g id="node5" class="node">
<title>choice</title>
<ellipse fill="none" stroke="#000000" cx="131.5" cy="-245.5392" rx="40.8928" ry="40.8928"/>
<text text-anchor="middle" x="131.5" y="-241.8392" font-family="Times,serif" font-size="14.00" fill="#000000">choice</text>
</g>
<!-- generated sample&#45;&gt;choice -->
<g id="edge3" class="edge">
<title>generated sample&#45;&gt;choice</title>
<path fill="none" stroke="#000000" d="M83.5974,-323.4388C89.5606,-313.7415 97.194,-301.3279 104.6063,-289.274"/>
<polygon fill="#000000" stroke="#000000" points="107.6807,-290.9561 109.9374,-280.6044 101.7178,-287.2894 107.6807,-290.9561"/>
</g>
<!-- data sample -->
<g id="node4" class="node">
<title>data sample</title>
<polygon fill="none" stroke="#000000" points="267.5,-359.4856 163.5,-359.4856 163.5,-323.4856 267.5,-323.4856 267.5,-359.4856"/>
<text text-anchor="middle" x="215.5" y="-337.7856" font-family="Times,serif" font-size="14.00" fill="#000000">data sample</text>
</g>
<!-- data sample&#45;&gt;choice -->
<g id="edge4" class="edge">
<title>data sample&#45;&gt;choice</title>
<path fill="none" stroke="#000000" d="M199.7002,-323.4388C190.0861,-312.4574 177.4223,-297.9926 165.6197,-284.5114"/>
<polygon fill="#000000" stroke="#000000" points="168.0201,-281.9398 158.7996,-276.7213 162.7534,-286.5508 168.0201,-281.9398"/>
</g>
<!-- discriminator -->
<g id="node7" class="node">
<title>discriminator</title>
<polygon fill="none" stroke="#000000" points="188,-167.5928 75,-167.5928 75,-131.5928 188,-131.5928 188,-167.5928"/>
<text text-anchor="middle" x="131.5" y="-145.8928" font-family="Times,serif" font-size="14.00" fill="#000000">discriminator</text>
</g>
<!-- choice&#45;&gt;discriminator -->
<g id="edge5" class="edge">
<title>choice&#45;&gt;discriminator</title>
<path fill="none" stroke="#000000" d="M131.5,-204.571C131.5,-195.5462 131.5,-186.1835 131.5,-177.7975"/>
<polygon fill="#000000" stroke="#000000" points="135.0001,-177.7965 131.5,-167.7966 128.0001,-177.7966 135.0001,-177.7965"/>
</g>
<!-- yes/no -->
<g id="node6" class="node">
<title>yes/no</title>
<ellipse fill="none" stroke="#000000" cx="213.5" cy="-40.2964" rx="40.0939" ry="40.0939"/>
<text text-anchor="middle" x="213.5" y="-36.5964" font-family="Times,serif" font-size="14.00" fill="#000000">yes/no</text>
</g>
<!-- yes/no&#45;&gt;generator -->
<g id="edge7" class="edge">
<title>yes/no&#45;&gt;generator</title>
<path fill="none" stroke="#000000" stroke-dasharray="5,2" d="M247.441,-62.8231C259.7477,-72.5177 272.758,-84.8027 281.5,-98.5928 294.0849,-118.4451 295.5,-126.0877 295.5,-149.5928 295.5,-341.4856 295.5,-341.4856 295.5,-341.4856 295.5,-372.1392 265.6909,-390.5935 236.8298,-401.2773"/>
<polygon fill="#000000" stroke="#000000" points="235.445,-398.0521 227.1228,-404.609 237.7175,-404.673 235.445,-398.0521"/>
<text text-anchor="middle" x="318.5" y="-241.8392" font-family="Times,serif" font-size="14.00" fill="#000000"> &#160;error</text>
</g>
<!-- discriminator&#45;&gt;yes/no -->
<g id="edge6" class="edge">
<title>discriminator&#45;&gt;yes/no</title>
<path fill="none" stroke="#000000" d="M128.0003,-131.139C126.9915,-120.9824 127.3148,-108.4733 132.5,-98.5928 140.3675,-83.6012 154.0309,-71.5605 167.9191,-62.4023"/>
<polygon fill="#000000" stroke="#000000" points="169.8785,-65.3059 176.5457,-57.0718 166.1989,-59.3509 169.8785,-65.3059"/>
<text text-anchor="middle" x="207" y="-102.3928" font-family="Times,serif" font-size="14.00" fill="#000000"> &#160;&#160;&#160;data sample? &#160;&#160;&#160;&#160;&#160;&#160;&#160;</text>
</g>
</g>
</svg>
