<?xml version="1.0" encoding="UTF-8" standalone="no"?>
<!DOCTYPE svg PUBLIC "-//W3C//DTD SVG 1.1//EN"
 "http://www.w3.org/Graphics/SVG/1.1/DTD/svg11.dtd">
<!-- Generated by graphviz version 2.40.1 (0)
 -->
<!-- Title: G Pages: 1 -->
<svg width="350pt" height="493pt"
 viewBox="0.00 0.00 349.50 492.69" xmlns="http://www.w3.org/2000/svg" xmlns:xlink="http://www.w3.org/1999/xlink">
<g id="graph0" class="graph" transform="scale(1 1) rotate(0) translate(4 488.6874)">
<title>G</title>
<polygon fill="#ffffff" stroke="transparent" points="-4,4 -4,-488.6874 345.5,-488.6874 345.5,4 -4,4"/>
<!-- noise -->
<g id="node1" class="node">
<title>noise</title>
<polygon fill="none" stroke="#000000" points="210.5,-484.6874 156.5,-484.6874 156.5,-448.6874 210.5,-448.6874 210.5,-484.6874"/>
<text text-anchor="middle" x="183.5" y="-462.9874" font-family="Times,serif" font-size="14.00" fill="#000000">noise</text>
</g>
<!-- generator -->
<g id="node2" class="node">
<title>generator</title>
<polygon fill="none" stroke="#000000" points="227,-411.6874 140,-411.6874 140,-375.6874 227,-375.6874 227,-411.6874"/>
<text text-anchor="middle" x="183.5" y="-389.9874" font-family="Times,serif" font-size="14.00" fill="#000000">generator</text>
</g>
<!-- noise&#45;&gt;generator -->
<g id="edge1" class="edge">
<title>noise&#45;&gt;generator</title>
<path fill="none" stroke="#000000" d="M183.5,-448.6425C183.5,-440.5703 183.5,-430.8638 183.5,-421.8692"/>
<polygon fill="#000000" stroke="#000000" points="187.0001,-421.7778 183.5,-411.7778 180.0001,-421.7778 187.0001,-421.7778"/>
</g>
<!-- generated sample -->
<g id="node3" class="node">
<title>generated sample</title>
<polygon fill="none" stroke="#000000" points="145,-338.6874 0,-338.6874 0,-302.6874 145,-302.6874 145,-338.6874"/>
<text text-anchor="middle" x="72.5" y="-316.9874" font-family="Times,serif" font-size="14.00" fill="#000000">generated sample</text>
</g>
<!-- generator&#45;&gt;generated sample -->
<g id="edge2" class="edge">
<title>generator&#45;&gt;generated sample</title>
<path fill="none" stroke="#000000" d="M156.0618,-375.6425C141.7864,-366.2541 124.1496,-354.6552 108.7637,-344.5365"/>
<polygon fill="#000000" stroke="#000000" points="110.2855,-341.3483 100.0073,-338.7778 106.4392,-347.1969 110.2855,-341.3483"/>
</g>
<!-- pick -->
<g id="node5" class="node">
<title>pick</title>
<ellipse fill="none" stroke="#000000" cx="131.5" cy="-235.1401" rx="30.5947" ry="30.5947"/>
<text text-anchor="middle" x="131.5" y="-231.4401" font-family="Times,serif" font-size="14.00" fill="#000000">pick</text>
</g>
<!-- generated sample&#45;&gt;pick -->
<g id="edge3" class="edge">
<title>generated sample&#45;&gt;pick</title>
<path fill="none" stroke="#000000" d="M85.0124,-302.545C91.7512,-292.7741 100.284,-280.402 108.1945,-268.9321"/>
<polygon fill="#000000" stroke="#000000" points="111.2861,-270.6141 114.0823,-260.395 105.5236,-266.6399 111.2861,-270.6141"/>
</g>
<!-- data sample -->
<g id="node4" class="node">
<title>data sample</title>
<polygon fill="none" stroke="#000000" points="267.5,-338.6874 163.5,-338.6874 163.5,-302.6874 267.5,-302.6874 267.5,-338.6874"/>
<text text-anchor="middle" x="215.5" y="-316.9874" font-family="Times,serif" font-size="14.00" fill="#000000">data sample</text>
</g>
<!-- data sample&#45;&gt;pick -->
<g id="edge4" class="edge">
<title>data sample&#45;&gt;pick</title>
<path fill="none" stroke="#000000" d="M197.6858,-302.545C186.8161,-291.4752 172.668,-277.0664 160.2441,-264.4137"/>
<polygon fill="#000000" stroke="#000000" points="162.6698,-261.8886 153.1662,-257.2054 157.6751,-266.793 162.6698,-261.8886"/>
</g>
<!-- discriminator -->
<g id="node7" class="node">
<title>discriminator</title>
<polygon fill="none" stroke="#000000" points="188,-167.5928 75,-167.5928 75,-131.5928 188,-131.5928 188,-167.5928"/>
<text text-anchor="middle" x="131.5" y="-145.8928" font-family="Times,serif" font-size="14.00" fill="#000000">discriminator</text>
</g>
<!-- pick&#45;&gt;discriminator -->
<g id="edge5" class="edge">
<title>pick&#45;&gt;discriminator</title>
<path fill="none" stroke="#000000" d="M131.5,-204.2556C131.5,-195.6409 131.5,-186.3273 131.5,-177.871"/>
<polygon fill="#000000" stroke="#000000" points="135.0001,-177.7352 131.5,-167.7352 128.0001,-177.7353 135.0001,-177.7352"/>
</g>
<!-- yes/no -->
<g id="node6" class="node">
<title>yes/no</title>
<ellipse fill="none" stroke="#000000" cx="213.5" cy="-40.2964" rx="40.0939" ry="40.0939"/>
<text text-anchor="middle" x="213.5" y="-36.5964" font-family="Times,serif" font-size="14.00" fill="#000000">yes/no</text>
</g>
<!-- yes/no&#45;&gt;generator -->
<g id="edge7" class="edge">
<title>yes/no&#45;&gt;generator</title>
<path fill="none" stroke="#000000" stroke-dasharray="5,2" d="M247.441,-62.8231C259.7477,-72.5177 272.758,-84.8027 281.5,-98.5928 294.0849,-118.4451 295.5,-126.0877 295.5,-149.5928 295.5,-320.6874 295.5,-320.6874 295.5,-320.6874 295.5,-351.341 265.6909,-369.7954 236.8298,-380.4792"/>
<polygon fill="#000000" stroke="#000000" points="235.445,-377.254 227.1228,-383.8108 237.7175,-383.8748 235.445,-377.254"/>
<text text-anchor="middle" x="318.5" y="-231.4401" font-family="Times,serif" font-size="14.00" fill="#000000"> &#160;error</text>
</g>
<!-- discriminator&#45;&gt;yes/no -->
<g id="edge6" class="edge">
<title>discriminator&#45;&gt;yes/no</title>
<path fill="none" stroke="#000000" d="M128.0003,-131.139C126.9915,-120.9824 127.3148,-108.4733 132.5,-98.5928 140.3675,-83.6012 154.0309,-71.5605 167.9191,-62.4023"/>
<polygon fill="#000000" stroke="#000000" points="169.8785,-65.3059 176.5457,-57.0718 166.1989,-59.3509 169.8785,-65.3059"/>
<text text-anchor="middle" x="207" y="-102.3928" font-family="Times,serif" font-size="14.00" fill="#000000"> &#160;&#160;&#160;data sample? &#160;&#160;&#160;&#160;&#160;&#160;&#160;</text>
</g>
</g>
</svg>
